<svg xmlns="http://www.w3.org/2000/svg" xmlns:xlink="http://www.w3.org/1999/xlink" viewBox="0 0 659.997 193.979">
  <defs>
    <style>
      .cls-1 {
        fill: url(#linear-gradient);
      }
    </style>
    <linearGradient id="linear-gradient" x1="0.5" x2="0" y2="1.546" gradientUnits="objectBoundingBox">
      <stop offset="0" stop-color="#067010"/>
      <stop offset="1" stop-color="#58cf01"/>
    </linearGradient>
  </defs>
  <g id="lying-person-reading" transform="translate(0 -21.888)">
    <g id="Group_196" data-name="Group 196" transform="translate(0 21.888)">
      <circle id="Ellipse_15" data-name="Ellipse 15" class="cls-1" cx="47.171" cy="47.171" r="47.171" transform="translate(420.332)"/>
      <path id="Path_238" data-name="Path 238" class="cls-1" d="M547.058,137.726q-31.777,10.922-63.586,21.834c-16.277-8.091-32.107-17.778-45.286-30.159l-.043-.3a44.045,44.045,0,0,0-5.057-4.705,2.812,2.812,0,0,1-.309-.309c-5.429-5.738-11.582-8.091-17.544-8.069a44.487,44.487,0,0,0-17.054.138c-82,27.934-174.5,22.984-203.608,6.43-30.51-24.709-54.963-56.251-75.552-89.9C104.04,8.2,65.439,30.6,80.5,55.2c20.919,34.183,45.691,66.429,75.531,93.032H21.834a21.85,21.85,0,0,0,0,43.7H176.355c51.865,12.349,189.034,37.43,247.734,4.514a65.415,65.415,0,0,0,8.612-5.674q9.5,6,19.311,11.327c11.04,5.993,25.188,14.968,38.026,10.56q35.482-12.2,70.942-24.368C592.759,177.371,579.09,126.719,547.058,137.726Z" transform="translate(0 -19.858)"/>
      <path id="Path_239" data-name="Path 239" class="cls-1" d="M164.582,77.047l.83-.8-45.18-53.718L51.206,103.959l11.976,10.156-5.259,6.206,42.21,35.78,65.95-77.8ZM123.873,42.513,66,110.773l-8.644-7.324,62.852-74.157,29.755,35.343Z" transform="translate(493.914 -15.686)"/>
    </g>
  </g>
</svg>
