<svg xmlns="http://www.w3.org/2000/svg" viewBox="0 0 36 36"><defs><style>.a{fill:#fbf9f9;}</style></defs><path class="a" d="M30.727,0H5.273A5.28,5.28,0,0,0,0,5.273V30.727A5.28,5.28,0,0,0,5.273,36H30.727A5.28,5.28,0,0,0,36,30.727V5.273A5.28,5.28,0,0,0,30.727,0ZM18.07,27.422a9.492,9.492,0,1,1,9.492-9.492A9.5,9.5,0,0,1,18.07,27.422ZM28.617,10.547a3.164,3.164,0,1,1,3.164-3.164A3.168,3.168,0,0,1,28.617,10.547Zm0,0"/><path class="a" d="M393.055,90a1.055,1.055,0,1,0,1.055,1.055A1.055,1.055,0,0,0,393.055,90Zm0,0" transform="translate(-364.438 -83.672)"/><path class="a" d="M158.263,150a6.263,6.263,0,1,0,6.263,6.263A6.271,6.271,0,0,0,158.263,150Zm0,0" transform="translate(-140.193 -138.333)"/></svg>