<svg xmlns="http://www.w3.org/2000/svg" xmlns:xlink="http://www.w3.org/1999/xlink" viewBox="0 0 133.427 131.599"><defs><style>.a{stroke:#1d8841;stroke-width:3px;}.a,.c{fill:url(#a);}.b{clip-path:url(#b);}</style><linearGradient id="a" x1="0.5" x2="0.5" y2="1" gradientUnits="objectBoundingBox"><stop offset="0" stop-color="#91dc5a"/><stop offset="1" stop-color="#496e2d"/></linearGradient><clipPath id="b"><path class="a" d="M66.713,0c36.845,0,66.713,29.459,66.713,65.8s-29.869,65.8-66.713,65.8S0,102.139,0,65.8,29.869,0,66.713,0Z" transform="translate(0)"/></clipPath></defs><g class="b"><g transform="translate(4.814 4)"><path class="c" d="M25.118,20.164a2.625,2.625,0,0,0,2.617-2.617V2.617a2.617,2.617,0,1,0-5.234,0V17.545A2.627,2.627,0,0,0,25.118,20.164Z" transform="translate(36.385)"/><path class="c" d="M25.118,39.295A2.625,2.625,0,0,0,22.5,41.912v14.93a2.617,2.617,0,1,0,5.234,0V41.915A2.627,2.627,0,0,0,25.118,39.295Z" transform="translate(36.385 63.541)"/><path class="c" d="M11.057,7.356a2.617,2.617,0,1,0-3.7,3.7L17.911,21.608a2.615,2.615,0,1,0,3.7-3.7Z" transform="translate(10.661 10.66)"/><path class="c" d="M38.841,35.142a2.615,2.615,0,1,0-3.7,3.7L45.695,49.394a2.617,2.617,0,0,0,3.7-3.7Z" transform="translate(55.592 55.59)"/><path class="c" d="M20.164,25.117A2.625,2.625,0,0,0,17.547,22.5H2.617a2.617,2.617,0,1,0,0,5.234h14.93A2.625,2.625,0,0,0,20.164,25.117Z" transform="translate(0 36.383)"/><path class="c" d="M56.842,22.5H41.912a2.617,2.617,0,0,0,0,5.234h14.93a2.617,2.617,0,0,0,0-5.234Z" transform="translate(63.541 36.383)"/><path class="c" d="M17.911,35.141,7.357,45.693a2.617,2.617,0,0,0,3.7,3.7L21.609,38.839a2.615,2.615,0,1,0-3.7-3.7Z" transform="translate(10.661 55.591)"/><path class="c" d="M38.84,21.609,49.4,11.057a2.617,2.617,0,0,0-3.7-3.7L35.142,17.911a2.615,2.615,0,1,0,3.7,3.7Z" transform="translate(55.587 10.661)"/><path class="c" d="M56.6,42.831a19.522,19.522,0,0,0-5.169-2.612q-2.893-.97-5.946-1.67c-1.63-.379-3.222-.722-4.81-1.057V26.577A12.081,12.081,0,0,1,43.9,27.689c1.84.942,2.86,2.771,3.051,5.456H60.225a16.711,16.711,0,0,0-2.4-7.82,16.063,16.063,0,0,0-5.072-4.97,21.329,21.329,0,0,0-6.93-2.654,38.941,38.941,0,0,0-5.153-.649V11H35.434v6.019a44.021,44.021,0,0,0-5.695.628,22.287,22.287,0,0,0-7.079,2.562,14.065,14.065,0,0,0-5.067,5.012,15.459,15.459,0,0,0-1.91,8.019,10.821,10.821,0,0,0,1.374,5.648,11.924,11.924,0,0,0,3.635,3.847,20.474,20.474,0,0,0,5.169,2.455c1.931.633,3.915,1.154,5.948,1.625,1.274.27,2.481.531,3.625.8V60.854c-.306-.058-.618-.094-.921-.17a10.427,10.427,0,0,1-3.394-1.523A8.144,8.144,0,0,1,28.71,56.5a7.616,7.616,0,0,1-.94-3.878H14.5a16.554,16.554,0,0,0,7.723,14.012,22.036,22.036,0,0,0,7.519,3,42.467,42.467,0,0,0,5.695.741v6.053H40.67V70.4a40.232,40.232,0,0,0,6.231-.777,22.149,22.149,0,0,0,7.432-2.944,15.449,15.449,0,0,0,7.273-13.868,11.812,11.812,0,0,0-1.379-5.946A12.543,12.543,0,0,0,56.6,42.831ZM34.612,35.945a10.7,10.7,0,0,1-3.583-1.918,3.809,3.809,0,0,1-1.374-3.051,3.711,3.711,0,0,1,.785-2.5,5,5,0,0,1,1.918-1.426,8.364,8.364,0,0,1,2.5-.641c.209-.021.379-.018.581-.034v9.816C35.167,36.105,34.868,36.027,34.612,35.945ZM46.76,57.779a6.708,6.708,0,0,1-2.222,1.958,10.439,10.439,0,0,1-2.944,1.089c-.311.065-.615.1-.926.154V48.955a25.642,25.642,0,0,1,2.79,1,9.623,9.623,0,0,1,3.1,2.018,3.775,3.775,0,0,1,1.078,2.7A5.1,5.1,0,0,1,46.76,57.779Z" transform="translate(23.447 17.787)"/></g></g></svg>