<svg xmlns="http://www.w3.org/2000/svg" viewBox="0 0 159.498 147.451"><defs><style>.a{fill:#12c950;}</style></defs><g transform="translate(0 0)"><path class="a" d="M159.179,64.029a3.356,3.356,0,0,0-3.041-1.931h-9.933a73.671,73.671,0,1,0-8.626,50.285,6.7,6.7,0,0,0-11.6-6.716A60.382,60.382,0,1,1,132.493,62.1h-9.855a3.351,3.351,0,0,0-2.579,5.5l16.757,20.107a3.352,3.352,0,0,0,5.148,0L158.721,67.6A3.35,3.35,0,0,0,159.179,64.029Z" transform="translate(0 -1.775)"/><path class="a" d="M30,6.713a6.7,6.7,0,0,0-6.7,6.7V54.083A11.717,11.717,0,0,0,30,75.418a11.583,11.583,0,0,0,4.948-1.133L58.262,87.74a6.631,6.631,0,0,0,3.346.9,6.7,6.7,0,0,0,3.353-12.505L41.624,62.662a11.673,11.673,0,0,0-4.917-8.572V13.415A6.716,6.716,0,0,0,30,6.713Zm0,62a5.024,5.024,0,1,1,5.026-5.022A5.031,5.031,0,0,1,30,68.709Z" transform="translate(43.729 10.044)"/></g></svg>