<svg xmlns="http://www.w3.org/2000/svg" xmlns:xlink="http://www.w3.org/1999/xlink" viewBox="0 0 133.427 131.599"><defs><style>.a{stroke:#1d8841;stroke-width:3px;}.a,.c{fill:url(#a);}.b{clip-path:url(#b);}.c{stroke:#707070;stroke-width:0.322px;}</style><linearGradient id="a" x1="0.5" x2="0.5" y2="1" gradientUnits="objectBoundingBox"><stop offset="0" stop-color="#91dc5a"/><stop offset="1" stop-color="#496e2d"/></linearGradient><clipPath id="b"><path class="a" d="M66.713,0c36.845,0,66.713,29.459,66.713,65.8s-29.869,65.8-66.713,65.8S0,102.139,0,65.8,29.869,0,66.713,0Z" transform="translate(0)"/></clipPath></defs><g class="b"><path class="c" d="M101.484.863A2.994,2.994,0,0,0,98.138.27l-96.409,44a2.937,2.937,0,0,0,.281,5.462L31.634,59.778a16.644,16.644,0,0,1,10.4,10.3L52.171,99.45a2.983,2.983,0,0,0,5.511.278l44.4-95.549A2.928,2.928,0,0,0,101.484.863Z" transform="translate(8.225 20.106)"/></g></svg>