<svg xmlns="http://www.w3.org/2000/svg" viewBox="0 0 149.755 148"><defs><style>.a{fill:#91dc5a;}</style></defs><g transform="translate(0 -3)"><g transform="translate(87.733 77.059)"><path class="a" d="M312.239,277.306c-3.548,0-6.435-2.5-6.435-5.569s2.887-5.57,6.435-5.57,6.435,2.5,6.435,5.57a2.925,2.925,0,1,0,5.85,0,11.638,11.638,0,0,0-9.36-11.09v-1.521a2.925,2.925,0,1,0-5.85,0v1.521a11.638,11.638,0,0,0-9.36,11.09c0,6.3,5.511,11.419,12.285,11.419,3.548,0,6.435,2.5,6.435,5.57s-2.887,5.57-6.435,5.57-6.435-2.5-6.435-5.57a2.925,2.925,0,1,0-5.85,0,11.638,11.638,0,0,0,9.36,11.09v1.264a2.925,2.925,0,1,0,5.85,0v-1.264a11.638,11.638,0,0,0,9.36-11.09C324.523,282.429,319.012,277.306,312.239,277.306Z" transform="translate(-299.954 -256.201)"/></g><g transform="translate(112.294 66.7)"><path class="a" d="M403.684,234.851a38.11,38.11,0,0,0-15.567-13.777,2.925,2.925,0,1,0-2.535,5.272,32.2,32.2,0,0,1,14.5,44.105,2.925,2.925,0,1,0,5.164,2.748,38.066,38.066,0,0,0-1.566-38.348Z" transform="translate(-383.924 -220.785)"/></g><g transform="translate(101.494 63.253)"><path class="a" d="M350.122,209h-.2a2.925,2.925,0,1,0,0,5.85h.183a2.925,2.925,0,0,0,.013-5.85Z" transform="translate(-347 -209.001)"/></g><g transform="translate(62.008 81.888)"><path class="a" d="M236.1,321.116a32.2,32.2,0,0,1-14.5-44.105,2.925,2.925,0,1,0-5.164-2.748,38.04,38.04,0,0,0,17.133,52.125,2.925,2.925,0,1,0,2.534-5.272Z" transform="translate(-212.002 -272.711)"/></g><g transform="translate(92.537 133.45)"><path class="a" d="M319.485,449h-.169a2.925,2.925,0,0,0-.027,5.85h.2a2.925,2.925,0,1,0,0-5.85Z" transform="translate(-316.378 -448.999)"/></g><g transform="translate(0 3)"><path class="a" d="M113.313,53.357a13.425,13.425,0,0,0-1.3-2.389h7.615a13.455,13.455,0,1,0,0-26.909H96.206A13.446,13.446,0,0,0,85.114,3H13.455a13.455,13.455,0,1,0,0,26.909H36.877a13.417,13.417,0,0,0,0,15.209H29.249A13.447,13.447,0,0,0,20.888,69.1a13.43,13.43,0,0,0,0,21.059,13.43,13.43,0,0,0,0,21.059,13.447,13.447,0,0,0,8.361,23.984h34.47a49.712,49.712,0,1,0,49.594-81.848Zm6.315-23.448a7.6,7.6,0,1,1,0,15.209H47.968a7.6,7.6,0,0,1,0-15.209ZM13.455,24.059a7.6,7.6,0,1,1,0-15.209h71.66a7.6,7.6,0,1,1,0,15.209ZM29.249,50.968h71.66a7.6,7.6,0,0,1,3.318.764c-1.383-.116-2.782-.179-4.2-.179A49.569,49.569,0,0,0,64.846,66.178h-35.6a7.6,7.6,0,1,1,0-15.209Zm0,21.059h30.6A49.581,49.581,0,0,0,52.33,87.237H29.249a7.6,7.6,0,1,1,0-15.209Zm0,21.059H50.987a49.763,49.763,0,0,0-.18,15.209H29.249a7.6,7.6,0,1,1,0-15.209Zm0,36.269a7.6,7.6,0,1,1,0-15.209H52a49.527,49.527,0,0,0,7.018,15.209Zm70.783,15.795a43.873,43.873,0,1,1,43.873-43.873A43.923,43.923,0,0,1,100.032,145.15Z" transform="translate(0 -3)"/></g></g></svg>