<svg xmlns="http://www.w3.org/2000/svg" xmlns:xlink="http://www.w3.org/1999/xlink" viewBox="0 0 133.427 131.599"><defs><style>.a{stroke:#1d8841;stroke-width:3px;}.a,.c{fill:url(#a);}.b{clip-path:url(#b);}</style><linearGradient id="a" x1="0.5" x2="0.5" y2="1" gradientUnits="objectBoundingBox"><stop offset="0" stop-color="#91dc5a"/><stop offset="1" stop-color="#496e2d"/></linearGradient><clipPath id="b"><path class="a" d="M66.713,0c36.845,0,66.713,29.459,66.713,65.8s-29.869,65.8-66.713,65.8S0,102.139,0,65.8,29.869,0,66.713,0Z" transform="translate(0)"/></clipPath></defs><g class="b"><g transform="translate(15.84 8.251)"><g transform="translate(0 0)"><path class="c" d="M100.5,33.046,66.863,11.407A1.445,1.445,0,0,0,65.3,13.838L98.44,35.161H90.714L52.988,10.888a3.917,3.917,0,0,0-4.229,0L11.032,35.161H3.306L50.872,4.555l6.736,4.334a1.445,1.445,0,0,0,1.564-2.431L52.436,2.124a2.893,2.893,0,0,0-3.125,0L1.25,33.046a2.719,2.719,0,0,0,1.471,5.005h7.29V47.4a2.4,2.4,0,0,0,1.9,2.342v2.544A2.4,2.4,0,0,0,14.3,54.676h.2V72.384a1.445,1.445,0,1,0,2.891,0V53.23a1.445,1.445,0,0,0-1.445-1.445H14.8v-2H25.039v1.995H23.892a1.445,1.445,0,0,0-1.445,1.445V85.164a1.445,1.445,0,0,0,1.445,1.445h1.146v2.169H14.8V86.609h1.146a1.445,1.445,0,0,0,1.445-1.445V81.47a1.445,1.445,0,1,0-2.891,0v2.249h-.2a2.4,2.4,0,0,0-2.393,2.393v2.544A2.4,2.4,0,0,0,10.012,91v2.918H4.892a2.9,2.9,0,0,0-2.9,2.9v3.04a2.9,2.9,0,0,0,2.9,2.9H96.855a2.9,2.9,0,0,0,2.9-2.9v-3.04a2.9,2.9,0,0,0-2.9-2.9h-5.12V91a2.4,2.4,0,0,0-1.9-2.342V86.111a2.4,2.4,0,0,0-2.393-2.393h-.2V54.675h.2a2.4,2.4,0,0,0,2.393-2.393V49.738a2.4,2.4,0,0,0,1.9-2.342V38.051h7.29a2.719,2.719,0,0,0,1.471-5.005ZM50.323,13.319a1.02,1.02,0,0,1,1.1,0L85.372,35.161h-69ZM12.9,38.052H88.844v3.537H12.9Zm45.98,50.6V86.112a2.4,2.4,0,0,0-2.393-2.393h-.2V54.676h.2a2.4,2.4,0,0,0,2.393-2.393V49.739a2.4,2.4,0,0,0,1.9-2.342V44.479H71.918V47.4a2.4,2.4,0,0,0,1.9,2.342v2.544a2.4,2.4,0,0,0,2.393,2.393h.2V83.719h-.2a2.4,2.4,0,0,0-2.393,2.393v2.544A2.4,2.4,0,0,0,71.918,91v2.918H60.782V91A2.4,2.4,0,0,0,58.883,88.656Zm-30.953,0V86.112a2.4,2.4,0,0,0-2.393-2.393h-.2V54.676h.2a2.4,2.4,0,0,0,2.393-2.393V49.739a2.4,2.4,0,0,0,1.9-2.342V44.479H40.965V47.4a2.4,2.4,0,0,0,1.9,2.342v2.544a2.4,2.4,0,0,0,2.393,2.393h.2V83.719h-.2a2.4,2.4,0,0,0-2.393,2.393v2.544A2.4,2.4,0,0,0,40.965,91v2.918H29.829V91A2.4,2.4,0,0,0,27.929,88.656Zm26.916-2.046h1.146v2.169H45.755V86.609H46.9a1.445,1.445,0,0,0,1.445-1.445V53.23A1.445,1.445,0,0,0,46.9,51.784H45.755V49.79H55.992v1.995H54.846A1.445,1.445,0,0,0,53.4,53.23V85.164A1.445,1.445,0,0,0,54.846,86.609ZM44.31,46.9h-.454v-2.42H57.891V46.9H44.31Zm-.454,44.7a1.444,1.444,0,0,0,.448.072H57.431a1.443,1.443,0,0,0,.461-.076v2.322H43.855Zm-30.5-44.7H12.9v-2.42H26.938V46.9H13.356ZM12.9,91.6a1.442,1.442,0,0,0,.454.074H26.484a1.442,1.442,0,0,0,.454-.074v2.32H12.9V91.6Zm83.96,5.217,0,3.047h0l-91.97-.007.007-3.047Zm-8.476-5.143a1.445,1.445,0,0,0,.458-.075v2.321H74.809V91.6a1.44,1.44,0,0,0,.45.072ZM77.854,51.785H76.708V49.79H86.945v1.995H85.8a1.445,1.445,0,0,0-1.445,1.445V85.164A1.445,1.445,0,0,0,85.8,86.609h1.146v2.169H76.708V86.609h1.146A1.445,1.445,0,0,0,79.3,85.164V53.23A1.445,1.445,0,0,0,77.854,51.785ZM88.845,46.9H74.809v-2.42H88.845V46.9Z" transform="translate(0 -1.666)"/></g><g transform="translate(45.55 14.489)"><path class="c" d="M235.147,82.245V77.732c1.556.111,2.134.822,2.667.822.667,0,.978-.845.978-1.267,0-1.089-2.134-1.556-3.645-1.6v-.6c0-.267-.333-.511-.667-.511a.587.587,0,0,0-.645.511v.645c-2.112.222-4.223,1.334-4.223,4.134,0,2.845,2.223,3.645,4.223,4.357v5.223c-2.267-.178-2.867-1.734-3.6-1.734-.556,0-1.022.733-1.022,1.267,0,1.089,1.867,2.578,4.623,2.623h0v.689a.586.586,0,0,0,.645.511c.333,0,.667-.245.667-.511v-.756a4.306,4.306,0,0,0,4.045-4.579C239.192,83.934,237.08,82.956,235.147,82.245Zm-1.178-.422c-1.178-.445-2.134-.911-2.134-2.178,0-1.156.889-1.711,2.134-1.867Zm1.045,7.579v-4.69a2.6,2.6,0,0,1,1.956,2.49A2.114,2.114,0,0,1,235.013,89.4Z" transform="translate(-229.212 -74.576)"/></g></g></g></svg>