<svg xmlns="http://www.w3.org/2000/svg" xmlns:xlink="http://www.w3.org/1999/xlink" viewBox="0 0 133.427 131.599"><defs><style>.a{stroke:#1d8841;stroke-width:3px;}.a,.c{fill:url(#a);}.b{clip-path:url(#b);}</style><linearGradient id="a" x1="0.5" x2="0.5" y2="1" gradientUnits="objectBoundingBox"><stop offset="0" stop-color="#91dc5a"/><stop offset="1" stop-color="#496e2d"/></linearGradient><clipPath id="b"><path class="a" d="M66.713,0c36.845,0,66.713,29.459,66.713,65.8s-29.869,65.8-66.713,65.8S0,102.139,0,65.8,29.869,0,66.713,0Z" transform="translate(0)"/></clipPath></defs><g class="b"><g transform="translate(16.153 14)"><g transform="translate(8.847)"><g transform="translate(0)"><path class="c" d="M92.063,26.045A1.691,1.691,0,0,0,93.8,24.4V6.894A7.109,7.109,0,0,0,86.507,0H16.138A7.109,7.109,0,0,0,8.847,6.894V94.439a7.109,7.109,0,0,0,7.291,6.894H86.507A7.109,7.109,0,0,0,93.8,94.439V76.93a1.739,1.739,0,0,0-3.472,0V94.439a3.724,3.724,0,0,1-3.819,3.611H16.138a3.724,3.724,0,0,1-3.819-3.611V6.894a3.724,3.724,0,0,1,3.819-3.611H86.507a3.724,3.724,0,0,1,3.819,3.611V24.4A1.691,1.691,0,0,0,92.063,26.045Z" transform="translate(-8.847)"/></g></g><g transform="translate(45.641 6.819)"><path class="c" d="M194.2,35.387h-6.819a1.6,1.6,0,1,0,0,3.2H194.2a1.6,1.6,0,0,0,0-3.2Z" transform="translate(-185.779 -35.387)"/></g><g transform="translate(38.122 6.828)"><path class="c" d="M151.991,35.431a1.6,1.6,0,1,0,1.6,1.607v-.017A1.591,1.591,0,0,0,151.991,35.431Z" transform="translate(-150.393 -35.431)"/></g><g transform="translate(45.641 91.318)"><path class="c" d="M194.2,460.026h-6.819a1.6,1.6,0,1,0,0,3.2H194.2a1.6,1.6,0,0,0,0-3.2Z" transform="translate(-185.779 -460.026)"/></g><g transform="translate(15.665 13.638)"><path class="c" d="M107.2,82.931a1.629,1.629,0,0,0,1.6-1.658V72.43a1.629,1.629,0,0,0-1.6-1.658H45.827a1.629,1.629,0,0,0-1.6,1.658v70.74a1.629,1.629,0,0,0,1.6,1.658H107.2a1.629,1.629,0,0,0,1.6-1.658v-8.842a1.6,1.6,0,1,0-3.2,0v7.184H47.425V74.088H105.6v7.185A1.629,1.629,0,0,0,107.2,82.931Z" transform="translate(-44.229 -70.772)"/></g><g transform="translate(47.727 71.85)"><path class="c" d="M209.863,362.713H196.224a1.6,1.6,0,1,0,0,3.2h13.639a1.6,1.6,0,1,0,0-3.2Z" transform="translate(-194.626 -362.713)"/></g><g transform="translate(36.364 71.85)"><g transform="translate(0)"><path class="c" d="M146.554,362.713h-3.41a1.6,1.6,0,1,0,0,3.2h3.41a1.6,1.6,0,1,0,0-3.2Z" transform="translate(-141.546 -362.713)"/></g></g><g transform="translate(42.172 28.166)"><g transform="translate(0)"><path class="c" d="M176.5,141.546a8.418,8.418,0,1,0,8.417,8.418A8.427,8.427,0,0,0,176.5,141.546Zm0,13.639a5.221,5.221,0,1,1,5.221-5.221A5.227,5.227,0,0,1,176.5,155.185Z" transform="translate(-168.087 -141.546)"/></g></g><g transform="translate(70.144 30.399)"><path class="c" d="M312.29,150.393a20.335,20.335,0,0,0-13.464,35.588,26.33,26.33,0,0,1-4.622,5.711,1.6,1.6,0,0,0,1.037,2.814c.042,0,.084,0,.127,0a26.737,26.737,0,0,0,11.589-4.114,20.353,20.353,0,1,0,5.334-39.994Zm0,37.506a17.149,17.149,0,0,1-5.143-.786,1.6,1.6,0,0,0-1.421.234,21.119,21.119,0,0,1-5.982,2.957,31.736,31.736,0,0,0,2.546-3.928,1.6,1.6,0,0,0-.428-2.034A17.131,17.131,0,1,1,312.29,187.9Z" transform="translate(-291.939 -150.393)"/></g><g transform="translate(81.664 40.82)"><path class="c" d="M368.913,206.458a5.005,5.005,0,0,0-8.024,5.764l-8.7,8.7a1.6,1.6,0,1,0,2.26,2.26l1.281-1.281,1.281,1.281a1.6,1.6,0,0,0,2.26-2.26l-1.281-1.281,5.161-5.161a5.006,5.006,0,0,0,5.764-8.024Zm-2.26,4.822a1.811,1.811,0,1,1,.531-1.281A1.814,1.814,0,0,1,366.653,211.28Z" transform="translate(-351.719 -204.991)"/></g><g transform="translate(36.948 48.105)"><path class="c" d="M163.455,242.312a3.349,3.349,0,0,0-4.542.478,5.139,5.139,0,0,1-7.671,0,3.35,3.35,0,0,0-4.542-.478,13.451,13.451,0,0,0-5.155,10.615v5.114a1.6,1.6,0,0,0,1.6,1.6h23.868a1.6,1.6,0,0,0,1.6-1.6v-5.114A13.45,13.45,0,0,0,163.455,242.312Zm1.958,14.131H144.742v-3.516a10.281,10.281,0,0,1,3.929-8.1.281.281,0,0,1,.2.106,8.335,8.335,0,0,0,12.42,0,.331.331,0,0,1,.185-.11h0a10.272,10.272,0,0,1,3.938,8.106v3.516Z" transform="translate(-141.545 -241.635)"/></g></g></g></svg>