<svg xmlns="http://www.w3.org/2000/svg" viewBox="0 0 148.936 148"><defs><style>.a{fill:#12c950;}</style></defs><g transform="translate(0 0)"><path class="a" d="M147.873,279a13.3,13.3,0,0,0-16.466-7.259l-26.424,8.863a13.283,13.283,0,0,0-.644-3.26,13.061,13.061,0,0,0-6.565-7.617L61.589,251.525a21.64,21.64,0,0,0-15.75-1.474l-10.8,3.1A13.135,13.135,0,0,0,22.106,242H4.363A4.377,4.377,0,0,0,0,246.387v61.472a4.378,4.378,0,0,0,4.363,4.391h26.47a4.378,4.378,0,0,0,4.363-4.391V305.5l22.559,11.35a38.963,38.963,0,0,0,33.018.973L141,296.295A13.2,13.2,0,0,0,147.873,279ZM26.47,303.468H8.727v-52.69H22.108a4.381,4.381,0,0,1,4.362,4.391Zm111.1-15.248L87.343,309.753A30.285,30.285,0,0,1,61.656,309L35.2,295.686V262.244l13.04-3.748a12.975,12.975,0,0,1,9.451.884l36.184,18.206a4.41,4.41,0,0,1,1.952,5.892,4.351,4.351,0,0,1-5.855,1.963L68.38,274.579a13.092,13.092,0,0,0-16.109,3.6,4.408,4.408,0,0,0,.707,6.168,4.345,4.345,0,0,0,6.13-.711,4.363,4.363,0,0,1,5.369-1.2L86.065,293.3a13.032,13.032,0,0,0,14.608-1.985l33.5-11.236a4.6,4.6,0,0,1,5.681,2.384,4.4,4.4,0,0,1-2.279,5.761Zm0,0" transform="translate(0 -173.03)"/><path class="a" d="M309.747,96.391A4.391,4.391,0,1,1,305.356,92,4.391,4.391,0,0,1,309.747,96.391Zm0,0" transform="translate(-213.452 -65.427)"/><path class="a" d="M369.746,156.387a4.39,4.39,0,1,1-4.39-4.391A4.39,4.39,0,0,1,369.746,156.387Zm0,0" transform="translate(-256.005 -108.093)"/><path class="a" d="M326.052,93.285a4.391,4.391,0,0,0-6.209,0l-17.564,17.564a4.39,4.39,0,1,0,6.209,6.209l17.564-17.563A4.391,4.391,0,0,0,326.052,93.285Zm0,0" transform="translate(-213.555 -65.477)"/><path class="a" d="M182.644,52.314,226.552,87.44a4.389,4.389,0,0,0,5.475.009l44.2-35.126a4.391,4.391,0,0,0-2.732-7.829H260.032V4.391A4.391,4.391,0,0,0,255.641,0h-52.69a4.391,4.391,0,0,0-4.391,4.391v40.1H185.387a4.392,4.392,0,0,0-2.743,7.82Zm20.307.962a4.391,4.391,0,0,0,4.391-4.391V8.782H251.25v40.1a4.391,4.391,0,0,0,4.391,4.391h5.274L229.3,78.4l-31.4-25.12Zm0,0" transform="translate(-128.955)"/></g></svg>